<?xml version="1.0" encoding="UTF-8"?>
<svg id="Layer_1" data-name="Layer 1" xmlns="http://www.w3.org/2000/svg" viewBox="0 0 3062.12 1979.71">
  <defs>
    <style>
      .cls-1 {
        fill: #231f20;
      }
    </style>
  </defs>
  <path class="cls-1" d="M36.58,364.9c-7.83-17.45-15.62-34.97-21.58-53.17s-9.89-36.27-10.02-55.05c-.1-14.74,2.68-29.36,8.41-42.95,5.47-12.96,13.58-24.95,24.28-34.14s24.7-15.22,39.23-16.03c19.56-1.09,38.56,5.41,56.84,11.57s36.16,11.98,54.35,17.64,36.57,11.14,54.95,16.37,36.68,10.21,55.1,14.98,36.91,9.33,55.44,13.66,37.12,8.45,55.75,12.34c18.63,3.89,37.31,7.56,56.03,11.01,18.8,3.46,37.63,6.71,56.51,9.72s37.63,5.79,56.49,8.35,37.89,4.93,56.88,7.06c18.92,2.12,37.86,4.02,56.83,5.7,18.96,1.68,37.95,3.13,56.94,4.36s38.16,2.25,57.26,3.04,37.9,1.34,56.85,1.68,38.23.46,57.34.34c19.04-.11,38.07-.44,57.1-1s38.05-1.34,57.06-2.35c19.01-1.01,38.01-2.24,56.99-3.69s37.94-3.14,56.88-5.04,38.01-4.05,56.97-6.42,37.89-4.96,56.78-7.77c18.83-2.81,37.62-5.84,56.38-9.1,18.76-3.26,37.47-6.74,56.14-10.45,17.5-3.48,35.08-6.89,52.22-11.92,16.66-4.89,33.07-11.44,47.47-21.26,13.1-8.93,24.1-20.65,31.55-34.71,7.04-13.3,10.98-28.68,9.08-43.76s-8.95-27.67-19.54-37.67-23.49-16.54-36.84-21.57c-14.31-5.39-29.21-8.83-44.12-12.1-19.74-4.33-39.52-8.52-59.33-12.54-19.81-4.03-39.65-7.9-59.52-11.61-19.87-3.72-39.77-7.28-59.69-10.68-19.92-3.41-39.88-6.66-59.85-9.75s-39.97-6.03-60-8.82-40.18-5.43-60.3-7.91-40.31-4.81-60.49-6.97c-18.74-2.01-37.64-4.56-56.53-4.24-17.95.3-35.92,3.75-51.34,13.33-14.54,9.04-26.05,22.04-36.51,35.4-10.74,13.71-21.02,27.8-31.06,42.03s-19.77,28.68-29.2,43.32c-9.37,14.55-18.44,29.29-27.22,44.2-8.77,14.9-17.24,29.97-25.44,45.19s-16.1,30.6-23.73,46.11-15.01,31.18-22.12,46.96-14.09,31.99-20.75,48.14-12.99,32.21-19.13,48.45-12.06,32.65-17.75,49.1c-5.7,16.49-11.18,33.05-16.45,49.68-5.28,16.67-10.36,33.4-15.24,50.18-4.89,16.82-9.59,33.7-14.11,50.63s-8.87,33.96-13.05,51-8.24,34.3-12.13,51.51c-3.87,17.15-7.6,34.33-11.19,51.54-3.59,17.21-7.04,34.45-10.38,51.71-3.33,17.25-6.54,34.52-9.65,51.8-3.1,17.26-6.1,34.54-9.01,51.84s-5.73,34.66-8.47,52.01c-2.89,18.26-5.69,36.53-8.43,54.8s-5.63,37.86-8.38,56.79c-2.75,18.96-5.47,37.92-8.17,56.88s-5.39,37.96-8.09,56.94-5.42,38.12-8.16,57.18c-2.73,18.98-5.49,37.95-8.3,56.92s-5.67,37.91-8.6,56.85-5.93,37.85-9.03,56.75c-3.09,18.88-6.28,37.75-9.59,56.6s-6.72,37.63-10.27,56.42-7.24,37.49-11.09,56.19c-3.86,18.75-7.88,37.47-12.08,56.15s-8.54,37.13-13.1,55.62-9.32,36.91-14.3,55.28-10.18,36.66-15.62,54.9c-5.44,18.23-11.13,36.4-17.07,54.47-5.98,18.17-12.21,36.25-18.73,54.23-6,16.56-12.25,33.03-18.74,49.41l3.08-1.75c-22.25-6.69-43.03-17.88-61.28-32.23s-34.43-31.98-47.86-51.16c-13.58-19.4-24.7-40.54-33.21-62.63-10.31-26.79-17.05-54.88-21.59-83.19-4.69-29.24-6.96-58.82-8.36-88.39-1.43-30.34-2.05-60.71-2.89-91.07-.88-31.64-1.75-63.29-2.63-94.93-.88-31.64-1.75-63.29-2.63-94.93s-1.76-63.62-2.64-95.43c-.88-31.64-1.75-63.29-2.63-94.93s-1.75-63.29-2.63-94.93c-.44-15.82-.88-31.64-1.31-47.47-.2-7.23-.58-14.49-.18-21.71.36-6.43,1.45-13.01,4.41-18.79,10.18-19.89,35.83-22.19,55.64-22.02,13.57.12,27.16,1.04,40.72,1.65,14.54.65,29.08,1.32,43.61,1.97,29.17,1.3,58.33,2.52,87.52,3.41,29.17.9,58.35,1.47,87.54,1.46,29.13,0,58.26-.59,87.36-2.02,28.9-1.42,57.77-3.67,86.52-7.03,28.58-3.34,57.04-7.75,85.24-13.52,28.11-5.75,55.96-12.84,83.32-21.48,13.33-4.21,26.54-8.78,39.61-13.73l-3.08-3.08c-9.17,29.47-17.85,59.09-26.04,88.84s-15.89,59.64-23.1,89.65c-7.21,30.01-13.93,60.13-20.15,90.36s-11.95,60.56-17.17,90.97-9.95,60.91-14.18,91.48-7.98,61.33-11.21,92.09-5.95,61.44-8.16,92.22c-1.1,15.31-2.08,30.63-2.93,45.96-.74,13.37-1.76,26.81-1.43,40.21.54,21.89,5.21,46.78,25.07,59.47,11.23,7.17,24.98,8.53,37.99,8.07,6.86-.24,13.68-.98,20.51-1.67,8.11-.83,16.22-1.66,24.34-2.48,31.95-3.26,63.9-6.52,95.86-9.78,15.89-1.62,31.79-3.24,47.68-4.86,14.52-1.48,29.09-2.74,43.51-5.03,13.46-2.14,26.78-5.35,39.27-10.89,11.28-5.01,21.54-12.11,30.14-20.97,16.33-16.81,26.22-38.72,32.96-60.89,7.54-24.82,11.45-50.6,15.84-76.11,5.4-31.4,10.63-62.82,15.67-94.28,5.05-31.46,9.91-62.94,14.6-94.45,4.69-31.51,9.2-63.05,13.52-94.61,4.34-31.62,8.5-63.26,12.47-94.93,3.97-31.61,7.76-63.24,11.37-94.89,1.74-15.25,3.44-30.51,5.09-45.77l-1.84,2.41c25.4-3.67,50.8-7.33,76.2-11s50.64-7.31,75.96-10.96c25.32-3.65,50.64-7.31,75.96-10.96,25.32-3.65,50.64-7.31,75.96-10.96s50.64-7.31,75.96-10.96c3.13-.45,6.27-.9,9.4-1.36l-1.93-4.57c-12.01,5.56-23.68,11.82-34.96,18.74-11.28,6.92-22.13,14.51-32.58,22.63-10.31,8.01-20.19,16.57-29.63,25.58-9.53,9.1-18.62,18.66-27.28,28.59s-17.06,20.46-24.98,31.17c-7.94,10.74-15.47,21.79-22.62,33.07s-14.11,23.12-20.63,34.99-12.71,23.98-18.58,36.21c-5.89,12.27-11.47,24.68-16.77,37.22s-10.44,25.41-15.27,38.27-9.25,25.33-13.54,38.11-8.49,25.96-11.97,39.17-6.51,27.28-8.4,41.16c-1.85,13.57-2.77,27.28-2.03,40.97s2.9,26.32,7.25,38.79c4.36,12.51,10.83,24.15,19.32,34.33,9.47,11.36,21.42,20.49,34.25,27.77s26.86,12.98,41,17.53,27.83,7.72,42.1,9.92,28.8,3.37,43.29,3.49c14.55.12,29.1-.79,43.53-2.61,14.57-1.84,29.01-4.57,43.25-8.17s28.27-8.03,42.01-13.22,27.54-11.27,40.8-17.99,25.82-13.96,38.13-21.94c12.61-8.17,24.78-17.01,36.57-26.32,11.69-9.24,22.98-18.98,33.87-29.15,10.9-10.18,21.41-20.78,31.55-31.72,10.22-11.03,20.08-22.4,29.6-34.04s18.78-23.64,27.73-35.8,17.55-24.46,25.95-36.95,16.63-25.24,24.64-38.06,16.24-26.4,24.12-39.75,16.09-27.65,23.87-41.62,15.33-27.91,22.73-42,14.64-28.27,21.7-42.54,14.01-28.76,20.75-43.26c6.71-14.44,13.24-28.96,19.6-43.55,6.38-14.66,12.59-29.39,18.62-44.2,6.03-14.81,11.88-29.7,17.55-44.66,5.64-14.89,11.1-29.84,16.38-44.86s10.43-30.24,15.36-45.46,9.64-30.35,14.19-45.6c4.55-15.26,8.91-30.57,13.08-45.93,4.19-15.43,8.2-30.92,12.01-46.45,3.8-15.46,7.41-30.97,10.83-46.51s6.65-31.14,9.69-46.76,5.91-31.44,8.58-47.21,5.12-31.43,7.38-47.18c2.25-15.67,4.52-31.38,6.11-47.14,1.55-15.38,2.15-31.03-.73-46.29-2.54-13.45-7.99-26.64-17.75-36.45-8.33-8.37-19.32-14.57-30.98-16.69s-23.27-.03-32.52,7.31c-11.05,8.77-15.82,22.89-19.14,36.08-4.11,16.32-7.67,32.79-11.35,49.21-3.76,16.8-7.42,33.63-10.98,50.48-3.56,16.85-7.02,33.72-10.37,50.61-3.37,16.97-6.64,33.96-9.81,50.96-3.15,16.93-6.21,33.88-9.16,50.84-2.95,16.96-5.8,33.95-8.56,50.95-2.76,17.08-5.43,34.17-7.99,51.28s-5,34.08-7.34,51.14c-2.37,17.2-4.63,34.42-6.79,51.64s-4.19,34.18-6.13,51.29-3.78,34.23-5.52,51.36c-1.75,17.21-3.39,34.43-4.94,51.67s-2.97,34.31-4.3,51.48c-1.33,17.17-2.56,34.34-3.69,51.53-1.14,17.26-2.17,34.53-3.1,51.81s-1.75,34.4-2.47,51.6c-.72,17.2-1.34,34.41-1.86,51.63-.52,17.29-.94,34.59-1.25,51.89s-.53,34.44-.63,51.66-.12,34.6-.02,51.9.29,34.44.59,51.66.7,34.43,1.21,51.65c.51,17.29,1.12,34.58,1.83,51.87s1.52,34.41,2.44,51.6c.91,17.2,1.93,34.39,3.05,51.57,1.13,17.26,2.35,34.52,3.69,51.77,1.23,15.89,2.54,31.76,3.94,47.63.11,1.24.87,2.3,2.17,2.46,1.18.14,2.46-.56,2.74-1.79,5.98-25.73,11.98-51.45,18.1-77.14s12.45-51.64,18.98-77.38,13.28-51.28,20.41-76.8c7.11-25.46,14.59-50.82,22.55-76.03,7.95-25.2,16.38-50.24,25.41-75.08,8.94-24.61,18.47-49.01,28.7-73.12,10.24-24.11,21.17-47.92,32.9-71.35s24.26-46.47,37.65-69,26.74-43.58,41.84-64.16c14.43-19.66,30.45-38.34,49.11-54.12,17.6-14.88,37.75-27.2,59.94-33.83,20.45-6.1,42.49-7.86,63.52-3.87,20.53,3.89,39.83,13.38,54.13,28.8,12.27,13.23,19.89,29.75,22.49,47.59,2.59,17.78.03,36.38-5.5,53.61-5.97,18.63-15.51,36.07-27.3,51.65-11.87,15.69-26.32,29.65-42.69,40.6-9.36,6.27-19.42,11.41-29.69,16.03-11.67,5.25-23.7,9.68-35.89,13.54-24.74,7.84-50.14,13.32-75.54,18.51s-51.2,10.13-76.43,16.79c-12.14,3.2-24.17,6.81-35.99,11.03-1.38.49-1.98,1.65-1.75,3.08,3.26,19.96,6.62,39.9,10.32,59.78,3.73,20.07,7.8,40.09,12.45,59.97,4.62,19.72,9.81,39.32,15.84,58.66,5.97,19.15,12.78,38.03,20.66,56.49s16.52,35.78,26.62,52.69c10.05,16.84,21.41,32.91,34.13,47.84,12.73,14.96,26.85,28.73,42.21,40.98,15.34,12.23,31.84,22.97,49.25,32.02,17.2,8.95,35.23,16.29,53.73,22.1,18.51,5.81,37.49,10.08,56.67,13.02s39.44,4.66,59.29,5.13c20.18.48,40.38-.24,60.48-1.95s40.82-4.5,61.03-8.1c20.09-3.58,40.03-8.01,59.78-13.17,19.52-5.1,38.85-10.92,57.96-17.37,20.39-6.89,40.58-14.38,60.5-22.52s40.09-17.15,59.59-26.91,38.05-20.05,56.29-31.43c18.3-11.42,36-23.81,52.9-37.23,16.78-13.33,32.74-27.72,47.58-43.18,7.17-7.47,14.07-15.19,20.69-23.15.86-1.04,1.02-2.52,0-3.54-.89-.89-2.67-1.04-3.54,0-13.65,16.41-28.53,31.79-44.37,46.09-15.76,14.23-32.47,27.4-49.87,39.57-17.56,12.28-35.82,23.56-54.55,33.97-18.84,10.47-38.17,20.05-57.83,28.89-19.61,8.82-39.55,16.88-59.71,24.34-19.31,7.14-38.8,13.78-58.53,19.68s-39.04,10.94-58.83,15.29c-19.78,4.35-39.75,7.95-59.83,10.59s-40.17,4.37-60.36,5c-19.86.63-39.77.19-59.57-1.52-19.33-1.68-38.54-4.6-57.44-8.98-18.72-4.34-37.12-10.1-54.88-17.44-17.62-7.28-34.59-16.2-50.55-26.63s-31.66-23.03-45.62-36.74c-13.82-13.58-26.32-28.46-37.45-44.3s-20.97-32.65-29.63-49.99c-8.78-17.58-16.37-35.74-23.03-54.23s-12.66-38.11-17.83-57.51c-5.22-19.59-9.74-39.37-13.82-59.23-4.07-19.81-7.69-39.72-11.1-59.66-1.63-9.54-3.22-19.09-4.78-28.65l-1.75,3.08c24.8-8.85,50.45-14.97,76.18-20.4,25.78-5.44,51.72-10.21,77.33-16.41,25.26-6.12,50.24-13.72,73.88-24.62,10.14-4.68,20.03-9.9,29.23-16.25,8.34-5.75,16.18-12.24,23.44-19.32,14.42-14.07,26.7-30.49,35.97-48.39,8.96-17.29,15.22-36.09,17.09-55.53,1.76-18.24-.75-36.87-8.58-53.52-8.52-18.13-23.22-33.09-40.86-42.48-19.19-10.21-41.35-14.08-62.95-12.96-22.31,1.16-44.07,7.5-63.65,18.2-21.66,11.84-40.61,28.14-57.19,46.32-16.84,18.47-31.42,38.88-45.07,59.78-14.45,22.1-27.99,44.8-40.69,67.95-12.73,23.22-24.61,46.9-35.72,70.94-11.09,23.99-21.43,48.33-31.11,72.93-9.74,24.74-18.82,49.74-27.36,74.93-8.54,25.21-16.53,50.6-24.1,76.11-7.59,25.59-14.74,51.3-21.59,77.09s-13.43,51.87-19.8,77.89-12.46,51.73-18.53,77.63c-2.94,12.56-5.86,25.12-8.79,37.69l4.91.66c-1.51-17.07-2.92-34.16-4.22-51.24-1.31-17.09-2.51-34.19-3.61-51.29-1.1-17.1-2.1-34.21-3-51.33-.9-17.12-1.7-34.24-2.39-51.36-.7-17.13-1.29-34.25-1.78-51.39-.49-17.13-.89-34.27-1.18-51.4-.29-17.14-.48-34.28-.57-51.41-.09-17.14-.08-34.28.04-51.42s.33-34.28.64-51.41c.32-17.14.73-34.27,1.25-51.4.52-17.13,1.14-34.26,1.86-51.38.72-17.12,1.54-34.24,2.46-51.36.92-17.11,1.94-34.22,3.07-51.33,1.12-17.1,2.35-34.2,3.67-51.29s2.75-34.17,4.27-51.24,3.15-34.13,4.88-51.19c1.73-17.05,3.55-34.09,5.48-51.13,1.93-17.03,3.95-34.05,6.08-51.06,2.12-16.94,4.34-33.88,6.66-50.8s4.76-33.95,7.29-50.9c2.53-16.95,5.16-33.89,7.89-50.81,2.73-16.92,5.56-33.83,8.49-50.71,2.93-16.89,5.96-33.76,9.09-50.61,3.13-16.85,6.36-33.68,9.69-50.5,3.33-16.81,6.76-33.61,10.29-50.38,3.53-16.77,7.16-33.52,10.88-50.25s7.4-33.05,11.34-49.52c3.1-12.91,6.94-26.91,17.31-35.99,8.21-7.19,19.39-9.04,29.77-6.99,11.18,2.21,21.5,8.25,29.25,16.56,9.29,9.95,13.86,23.43,15.84,36.68,2.26,15.05,1.14,30.48-.54,45.53s-3.94,31.09-6.21,46.58-4.79,31.33-7.47,46.94-5.55,31.2-8.61,46.75c-3.06,15.55-6.31,31.06-9.75,46.52-3.44,15.47-7.06,30.89-10.87,46.27-3.81,15.38-7.81,30.71-11.99,46-4.18,15.28-8.55,30.52-13.1,45.7s-9.28,30.3-14.2,45.37-10.01,30.07-15.29,45.01-10.73,29.82-16.37,44.63c-5.63,14.81-11.45,29.55-17.44,44.22s-12.11,29.14-18.43,43.6c-6.35,14.52-12.87,28.96-19.56,43.32-6.69,14.36-13.56,28.64-20.6,42.84-7.04,14.2-14.25,28.3-21.64,42.32-7.38,14.02-14.94,27.95-22.66,41.78s-15.62,27.58-23.68,41.22-15.83,26.44-24,39.5c-7.94,12.69-16.07,25.27-24.43,37.69s-16.96,24.7-25.84,36.77-17.92,23.76-27.35,35.26c-9.44,11.52-19.21,22.78-29.35,33.7s-20.56,21.43-31.42,31.55-22.08,19.81-33.71,29-23.53,17.76-35.9,25.76-24.94,15.22-37.97,21.81-26.36,12.48-40,17.61c-13.68,5.14-27.65,9.54-41.83,13.1-14,3.52-28.21,6.24-42.53,8.01s-28.72,2.63-43.13,2.48-28.49-1.26-42.55-3.49c-14.19-2.25-28.21-5.59-41.87-10.05-13.87-4.53-27.46-10.11-40.1-17.44-12.55-7.28-24.04-16.37-33.16-27.72-7.99-9.94-13.94-21.45-17.82-33.58s-5.82-25.19-6.25-38.1.59-27,2.61-40.33,5.15-27.3,8.8-40.69,7.75-25.96,12.1-38.78c4.32-12.72,8.84-25.37,13.61-37.93s9.77-25.04,15.05-37.39,10.93-24.78,16.85-36.97,12.1-24.14,18.66-35.94c6.51-11.72,13.36-23.25,20.6-34.54,7.17-11.19,14.71-22.13,22.67-32.77s16.06-20.62,24.72-30.41,17.71-19.17,27.22-28.11,19.21-17.24,29.46-25.07c10.35-7.9,21.13-15.26,32.29-21.97,10.44-6.28,21.22-11.99,32.28-17.11,1.12-.52,1.48-2.08,1.02-3.12-.54-1.23-1.68-1.63-2.95-1.45-25.4,3.67-50.8,7.33-76.2,11-25.32,3.65-50.64,7.31-75.96,10.96-25.32,3.65-50.64,7.31-75.96,10.96-25.32,3.65-50.64,7.31-75.96,10.96-25.32,3.65-50.64,7.31-75.96,10.96-3.13.45-6.27.9-9.4,1.36-1.16.17-1.73,1.41-1.84,2.41-3.42,31.51-7.02,63-10.79,94.46-3.78,31.47-7.73,62.91-11.86,94.33-4.1,31.2-8.38,62.38-12.84,93.53-4.49,31.37-9.15,62.72-13.99,94.04s-9.86,62.61-15.06,93.88c-2.6,15.63-5.24,31.26-7.93,46.87-2.34,13.6-4.59,27.23-7.25,40.78-4.5,22.97-10.26,46.17-21.05,67.09-5.15,9.97-11.46,19.36-19.3,27.42-8.53,8.78-18.68,15.65-29.9,20.52-12.3,5.34-25.58,8.26-38.79,10.28-14.15,2.17-28.45,3.37-42.69,4.83-31.79,3.24-63.57,6.49-95.36,9.73-15.89,1.62-31.79,3.24-47.68,4.86-7.95.81-15.89,1.62-23.84,2.43-6.77.69-13.54,1.4-20.34,1.6-12.55.37-25.63-1.04-36.17-8.44-8.56-6.02-13.97-15.33-16.97-25.19-3.28-10.74-4.12-22.07-4.14-33.24-.04-13.72,1-27.48,1.79-41.17,1.76-30.65,4.02-61.27,6.78-91.85,2.75-30.42,5.99-60.79,9.73-91.1,3.75-30.41,8-60.75,12.74-91.02s10-60.58,15.74-90.74,11.9-59.91,18.58-89.71c6.71-29.96,13.92-59.8,21.61-89.53,7.67-29.64,15.82-59.16,24.46-88.54,4.17-14.19,8.45-28.35,12.85-42.47.53-1.71-1.28-3.75-3.08-3.08-27.21,10.3-55.02,18.96-83.22,26.13-27.94,7.1-56.24,12.74-84.72,17.15s-57.22,7.59-86,9.82c-29.04,2.25-58.14,3.53-87.26,4.11-29.36.59-58.74.47-88.1-.09s-58.86-1.57-88.27-2.76c-29.26-1.19-58.51-2.56-87.77-3.87-13.19-.59-26.45-1.59-39.67-1.36-10.92.19-22.21,1.28-32.46,5.26-10.33,4.02-19.22,11.14-23.67,21.51-5.61,13.06-4.2,27.89-3.82,41.74.88,31.98,1.77,63.96,2.65,95.93.88,31.81,1.76,63.62,2.64,95.43s1.76,63.62,2.64,95.43,1.76,63.62,2.64,95.43c.88,31.81,1.76,63.62,2.64,95.43s1.71,63.26,2.63,94.88c.87,29.72,2.01,59.46,4.85,89.07,2.83,29.47,7.34,58.86,14.99,87.49,6.69,25.02,15.82,49.37,28.13,72.18,11.38,21.09,25.35,40.9,41.87,58.29,16.21,17.07,35.03,31.86,55.96,42.7,10.12,5.24,20.72,9.56,31.63,12.85,1.4.42,2.59-.51,3.08-1.75,7.03-17.74,13.77-35.59,20.24-53.55,6.45-17.92,12.62-35.94,18.54-54.05,5.88-18.02,11.51-36.11,16.9-54.28s10.58-36.55,15.53-54.92,9.68-36.82,14.21-55.3,8.87-37.05,13.02-55.64c4.16-18.61,8.14-37.26,11.96-55.95,3.81-18.63,7.47-37.29,10.99-55.98s6.94-37.6,10.23-56.43c3.29-18.85,6.47-37.72,9.55-56.61s6.06-37.67,8.97-56.52,5.78-37.9,8.58-56.86c2.81-18.97,5.56-37.94,8.29-56.92,2.72-18.9,5.41-37.81,8.09-56.72,2.69-18.98,5.38-37.96,8.09-56.93s5.42-37.93,8.18-56.88c2.75-18.94,5.55-37.87,8.4-56.79,2.74-18.2,5.54-36.39,8.42-54.56,2.73-17.21,5.53-34.41,8.43-51.59s5.92-34.57,9.03-51.84,6.34-34.56,9.68-51.8c3.33-17.19,6.78-34.35,10.37-51.49,3.6-17.21,7.33-34.39,11.22-51.53s7.91-34.23,12.11-51.29c4.19-17.04,8.55-34.04,13.09-50.99s9.24-33.8,14.14-50.61c4.87-16.72,9.94-33.37,15.21-49.97,5.28-16.62,10.77-33.18,16.49-49.66,5.7-16.44,11.63-32.81,17.79-49.08s12.48-32.26,19.08-48.24,13.44-31.78,20.54-47.51,14.51-31.42,22.17-46.93,15.52-30.74,23.7-45.89,16.7-30.27,25.49-45.16,17.89-29.63,27.28-44.17c9.41-14.57,19.12-28.95,29.14-43.11,9.96-14.08,20.12-28.08,30.84-41.6s21.9-25.89,36.54-34.3c15.56-8.93,33.54-11.38,51.23-11.19,9.11.1,18.2.83,27.26,1.72,9.93.97,19.86,2.04,29.78,3.12,20.01,2.18,40.01,4.51,59.99,7,20,2.49,39.98,5.14,59.94,7.94,20.02,2.81,40.01,5.78,59.98,8.91,19.97,3.13,39.92,6.41,59.84,9.84s39.81,7.03,59.68,10.77,39.54,7.62,59.26,11.65c19.8,4.05,39.57,8.26,59.31,12.63,14.32,3.17,28.61,6.8,42.24,12.3,12.69,5.13,25.02,12.13,34.37,22.28s15.11,23.86,15.18,38.02c.08,14.93-5.34,29.47-13.55,41.78-8.85,13.29-21.13,23.49-35.03,31.19-15.12,8.38-31.7,13.72-48.41,17.91-17.68,4.43-35.63,7.82-53.52,11.27-18.69,3.6-37.43,6.98-56.2,10.13s-37.58,6.07-56.43,8.77-37.43,5.13-56.18,7.36c-18.9,2.25-37.83,4.27-56.78,6.06-18.95,1.79-37.92,3.36-56.91,4.71-18.91,1.34-37.84,2.46-56.78,3.35s-38.04,1.57-57.07,2.02c-19.03.45-38.07.67-57.1.68s-38.07-.22-57.11-.67-38.06-1.12-57.08-2.01-37.87-2-56.78-3.33-37.96-2.9-56.92-4.68c-18.95-1.78-37.89-3.79-56.79-6.01s-37.5-4.64-56.2-7.29c-18.85-2.67-37.66-5.57-56.44-8.68-18.78-3.12-37.52-6.45-56.22-10.01-18.7-3.56-37.36-7.34-55.97-11.34-18.53-3.98-37.02-8.19-55.46-12.61-18.51-4.44-36.97-9.1-55.37-13.98-18.4-4.88-36.74-9.98-55.02-15.3-18.28-5.32-36.49-10.86-54.64-16.62-9.04-2.87-18.05-5.79-27.05-8.77s-18.24-6.22-27.43-9.1c-18.3-5.75-37.85-10.12-56.96-5.91-13.8,3.04-26.26,10.61-36.1,20.65s-17.55,23.05-22.46,36.58c-5.29,14.59-7.26,30.03-6.48,45.5.95,18.98,5.56,37.57,11.8,55.46,5.83,16.73,13.05,32.95,20.3,49.1.55,1.23,2.34,1.53,3.42.9,1.27-.74,1.45-2.18.9-3.42h0Z"/>
</svg>