<?xml version="1.0" encoding="UTF-8"?>
<svg id="Layer_1" data-name="Layer 1" xmlns="http://www.w3.org/2000/svg" viewBox="0 0 3275.79 1561.82">
  <defs>
    <style>
      .cls-1 {
        fill: #231f20;
      }
    </style>
  </defs>
  <path class="cls-1" d="M388.95,1487.07c-3.56-17.11-7.01-34.24-10.36-51.39s-6.62-34.48-9.76-51.75c-3.13-17.19-6.16-34.4-9.07-51.63s-5.75-34.63-8.47-51.98-5.3-34.54-7.78-51.84c-2.48-17.24-4.85-34.49-7.12-51.75-2.28-17.41-4.45-34.83-6.52-52.26s-4-34.72-5.84-52.09-3.57-34.76-5.2-52.16c-1.63-17.48-3.16-34.97-4.57-52.47s-2.71-34.84-3.9-52.27c-1.19-17.43-2.28-34.87-3.25-52.32s-1.85-35.06-2.62-52.6c-.76-17.46-1.41-34.92-1.95-52.38s-.98-34.93-1.3-52.4-.55-35.11-.66-52.66-.11-34.95,0-52.42c.11-17.47.33-34.95.65-52.42s.76-35.1,1.31-52.65c.54-17.46,1.2-34.93,1.96-52.38.7-16.06,1.46-32.12,2.79-48.14,1.31-15.78,3.18-31.52,6.18-47.08,2.96-15.38,7-30.58,12.63-45.21,5.19-13.5,11.84-26.41,19.84-38.46,7.15-10.78,15.37-20.81,24.37-30.1,9.03-9.3,18.82-17.87,29.16-25.68s21.81-15.35,33.33-22.07,23.66-12.99,35.87-18.72,24.68-11.02,37.26-15.97c12.65-4.98,25.42-9.63,38.26-14.09,15.36-5.34,30.8-10.46,46.27-15.5,16.36-5.33,32.77-10.52,49.23-15.57s33.1-10.01,49.72-14.8,33.11-9.4,49.73-13.88,33.42-8.87,50.19-13.1,33.41-8.26,50.17-12.18,33.55-7.7,50.37-11.33c16.9-3.65,33.83-7.16,50.79-10.52,16.88-3.35,33.79-6.55,50.73-9.61s33.9-5.98,50.88-8.75c16.43-2.68,32.89-5.23,49.36-7.64,1.34-.2,2.07-1.89,1.75-3.08-.39-1.43-1.73-1.94-3.08-1.75-17.11,2.5-34.2,5.15-51.26,7.95-17.06,2.8-34.1,5.74-51.12,8.82-17.01,3.09-34,6.32-50.96,9.69-16.96,3.38-33.89,6.9-50.78,10.56s-33.76,7.47-50.6,11.43-33.63,8.05-50.4,12.29-33.49,8.62-50.18,13.14c-16.69,4.52-33.34,9.19-49.95,14s-33.18,9.76-49.7,14.85c-16.52,5.09-33.01,10.32-49.44,15.69-15.22,4.98-30.43,10.03-45.55,15.32-12.84,4.49-25.61,9.18-38.26,14.2s-25.44,10.49-37.87,16.39c-12.24,5.8-24.26,12.07-35.92,18.97s-22.58,14.15-33.14,22.27-20.42,16.76-29.56,26.31-17.4,19.83-24.63,30.85c-8.05,12.28-14.65,25.44-19.9,39.15-5.63,14.71-9.66,29.99-12.6,45.45s-4.88,31.61-6.21,47.54-2.1,32.23-2.81,48.37c-.77,17.54-1.42,35.08-1.97,52.63s-.98,35.1-1.31,52.65-.54,35.11-.65,52.66-.1,35.11,0,52.66c.11,17.47.33,34.95.66,52.42s.77,35.1,1.32,52.65c.55,17.55,1.21,35.09,1.97,52.63s1.64,35.07,2.63,52.6,2.08,35.05,3.28,52.56,2.52,35.02,3.94,52.52c1.42,17.5,2.95,34.99,4.59,52.46,1.64,17.48,3.39,34.95,5.24,52.4s3.82,34.9,5.89,52.33c2.07,17.43,4.25,34.85,6.54,52.26s4.7,34.92,7.21,52.35c2.5,17.38,5.12,34.73,7.84,52.08s5.55,34.67,8.49,51.98c2.94,17.31,5.98,34.6,9.13,51.87,3.15,17.27,6.41,34.52,9.78,51.75s6.59,33.16,10.03,49.71c.28,1.32,1.83,2.09,3.08,1.75,1.37-.38,2.02-1.75,1.75-3.08h0Z"/>
  <path class="cls-1" d="M3.07,918.98c26.13-8.17,52.26-16.34,78.44-24.31,26.19-7.97,52.44-15.74,78.8-23.12s52.64-14.31,79.16-20.67c26.25-6.29,52.64-11.99,79.17-16.93,25.09-4.67,50.29-8.72,75.53-12.49,25.3-3.78,50.64-7.28,75.97-10.83,25.45-3.57,50.9-7.19,76.29-11.22,25.13-3.98,50.2-8.35,75.13-13.46s49.48-10.88,73.86-17.74c24.37-6.85,48.44-14.76,72.01-24,5.84-2.29,11.64-4.66,17.41-7.11,1.24-.53,1.52-2.36.9-3.42-.75-1.29-2.17-1.43-3.42-.9-23.28,9.86-47.14,18.31-71.32,25.66-24.22,7.35-48.76,13.59-73.48,19.02-24.82,5.45-49.82,10.1-74.89,14.28-25.19,4.2-50.45,7.92-75.72,11.51-25.33,3.6-50.67,7.06-75.99,10.73s-50.53,7.52-75.69,11.92c-26.17,4.57-52.22,9.82-78.12,15.72-26.59,6.06-53.02,12.77-79.34,19.92-26.33,7.16-52.55,14.75-78.68,22.59s-52.22,15.93-78.27,24.06c-6.36,1.98-12.71,3.97-19.07,5.96-3.06.96-1.75,5.79,1.33,4.82h0Z"/>
  <path class="cls-1" d="M999.05,586.82c-1.08,17.59-2.16,35.17-3.22,52.76s-2.1,35.23-3.11,52.84c-1.01,17.63-1.98,35.26-2.9,52.9-.92,17.64-1.79,35.29-2.6,52.94s-1.53,35.14-2.18,52.71-1.22,35.3-1.68,52.96c-.47,17.64-.83,35.29-1.08,52.94s-.38,35.27-.37,52.9.15,35.23.44,52.84c.29,17.59.73,35.18,1.35,52.77s1.39,35.12,2.35,52.67c.96,17.45,2.1,34.89,3.44,52.31,1.35,17.49,2.9,34.97,4.66,52.42,1.77,17.45,3.75,34.87,5.97,52.27s4.69,34.89,7.4,52.29c2.7,17.34,5.66,34.65,8.87,51.91s6.71,34.52,10.48,51.7c2.77,12.61,6.01,25.14,11.02,37.07,4.75,11.3,11.04,22.32,20.25,30.59,10.29,9.23,23.57,13.91,37.39,13.15,16.76-.92,32.39-8.28,47.22-15.55,12.49-6.12,24.96-12.28,37.38-18.54,12.54-6.33,25.02-12.77,37.4-19.39,12.41-6.64,24.72-13.46,36.88-20.54,12.11-7.05,24.07-14.36,35.82-21.99,11.64-7.57,23.08-15.46,34.23-23.74,11.09-8.24,21.9-16.87,32.32-25.95,10.19-8.88,20.01-18.2,29.33-28,9.36-9.85,18.2-20.19,26.44-30.99,8.2-10.76,15.77-22.01,22.58-33.71,7.45-12.8,13.94-26.13,19.5-39.86,6.25-15.42,11.3-31.3,15.5-47.39,4.22-16.17,7.58-32.56,10.47-49.02s5.3-33.07,7.61-49.66c2.47-17.79,4.87-35.59,7.21-53.39s4.66-35.95,6.9-53.94,4.41-35.99,6.52-53.99c2.11-18,4.15-36.02,6.13-54.04s3.9-36.05,5.75-54.08c1.85-18.03,3.64-36.07,5.36-54.12,1.66-17.39,3.26-34.78,4.8-52.18.12-1.35-1.23-2.5-2.5-2.5-1.45,0-2.38,1.15-2.5,2.5-1.59,17.97-3.25,35.94-4.97,53.91s-3.5,35.92-5.35,53.87c-1.84,17.87-3.74,35.73-5.71,53.58s-4.01,35.87-6.11,53.79-4.26,35.84-6.49,53.74-4.5,35.64-6.84,53.45c-2.32,17.67-4.7,35.32-7.16,52.97-2.3,16.51-4.71,33.01-7.6,49.43s-6.22,32.54-10.41,48.56-9.23,31.82-15.45,47.17c-5.47,13.49-11.94,26.58-19.28,39.15-6.76,11.58-14.27,22.72-22.41,33.38s-16.84,20.72-26.06,30.37c-9.34,9.78-19.17,19.09-29.38,27.96-10.26,8.91-20.89,17.38-31.81,25.46-11.07,8.19-22.41,15.99-33.97,23.48s-23.62,14.85-35.68,21.86c-12.11,7.04-24.37,13.82-36.72,20.42-12.27,6.56-24.64,12.94-37.06,19.2-12.36,6.24-24.78,12.37-37.21,18.46-14.49,7.1-30.01,14.54-46.46,14.93-7.01.17-14.08-1.09-20.46-4.06-5.13-2.39-9.72-5.68-13.72-9.67-8.49-8.44-14.24-19.36-18.5-30.45-4.82-12.53-7.8-25.6-10.63-38.69-3.67-17.03-7.07-34.11-10.21-51.25-3.15-17.19-6.04-34.42-8.68-51.69-2.63-17.19-5.02-34.43-7.17-51.69-2.16-17.32-4.09-34.67-5.8-52.05-1.71-17.3-3.2-34.62-4.5-51.96s-2.41-34.87-3.33-52.33-1.67-34.95-2.24-52.44-.99-34.86-1.25-52.29-.38-35.07-.37-52.61c.01-17.55.16-35.11.42-52.66.26-17.57.64-35.13,1.12-52.7.48-17.49,1.05-34.99,1.7-52.47.66-17.57,1.4-35.15,2.21-52.71s1.68-35.13,2.61-52.69c.92-17.47,1.89-34.94,2.89-52.41,1.01-17.53,2.05-35.07,3.1-52.6s2.05-33.73,3.09-50.59c.2-3.21-4.8-3.2-5,0h0Z"/>
  <path class="cls-1" d="M2114.8,618.65c-9.89,14.41-19.51,29-28.83,43.79s-18.36,29.75-27.1,44.88c-8.74,15.14-17.18,30.44-25.33,45.91-8.11,15.4-15.92,30.95-23.42,46.65s-14.77,31.68-21.69,47.73-13.58,32.35-19.9,48.72-12.27,32.73-17.91,49.27-10.51,31.62-14.88,47.69-8,32.2-10.48,48.6-3.82,32.54-3.42,48.91c.39,15.95,2.46,31.92,6.75,47.3s10.72,29.89,19.33,43.17c8.14,12.57,18.07,23.93,29.1,34.04,11.23,10.28,23.57,19.32,36.46,27.41,12.99,8.15,26.55,15.35,40.38,21.96,15.31,7.32,30.93,13.99,46.69,20.28,16.63,6.65,33.47,12.79,50.47,18.43,17.08,5.66,34.33,10.8,51.72,15.41,17.39,4.61,34.92,8.7,52.55,12.26,17.64,3.55,35.38,6.58,53.2,9.05,8.67,1.21,17.36,2.29,26.06,3.25,1.34.15,2.5-1.25,2.5-2.5,0-1.47-1.15-2.35-2.5-2.5-17.66-1.94-35.26-4.42-52.77-7.43-17.65-3.03-35.22-6.6-52.66-10.69-17.36-4.07-34.61-8.67-51.7-13.77s-34.03-10.73-50.78-16.85c-16.69-6.1-33.21-12.7-49.5-19.8-14.18-6.18-28.2-12.76-41.8-20.14-13.3-7.22-26.22-15.19-38.33-24.27-11.82-8.87-22.85-18.88-32.45-30.14s-17.94-24.37-23.99-38.22c-6.21-14.22-10.16-29.49-12.13-44.87-2.02-15.82-2.09-31.84-.82-47.72,1.3-16.29,4.02-32.44,7.6-48.38s8.06-31.8,13.03-47.43,10.81-32.49,16.68-48.57c5.95-16.27,12.21-32.43,18.79-48.46s13.48-31.95,20.68-47.72c7.2-15.76,14.7-31.38,22.5-46.86s15.9-30.79,24.29-45.95c8.39-15.16,17.07-30.16,26.04-44.98s18.23-29.47,27.77-43.94c4.65-7.04,9.36-14.04,14.13-21,.76-1.11.21-2.77-.9-3.42-1.24-.72-2.65-.22-3.42.9h0Z"/>
  <path class="cls-1" d="M2566.57,261.83c-.56,17.02-1.06,34.04-1.47,51.06-.41,16.94-.75,33.88-1.02,50.83-.27,17.03-.46,34.05-.58,51.08s-.16,34.06-.13,51.08c.03,16.95.13,33.89.31,50.84s.43,34.05.76,51.08c.33,17.02.73,34.05,1.21,51.07.48,17.02,1.03,34.04,1.65,51.06.62,16.93,1.32,33.87,2.09,50.79s1.62,34.02,2.54,51.02c.92,17,1.92,34,2.99,51s2.2,33.82,3.42,50.72c1.22,16.98,2.51,33.96,3.88,50.94,1.37,16.97,2.81,33.94,4.32,50.9s3.09,33.75,4.74,50.62,3.4,33.89,5.21,50.82c1.81,16.93,3.7,33.86,5.66,50.77,1.95,16.83,3.97,33.66,6.07,50.47,2.11,16.9,4.29,33.79,6.54,50.66s4.6,33.86,7.01,50.78c1.16,8.14,2.34,16.29,3.53,24.42.2,1.34,1.89,2.07,3.08,1.75,1.43-.39,1.94-1.73,1.75-3.08-2.47-16.85-4.87-33.71-7.2-50.57s-4.54-33.47-6.69-50.22c-2.18-16.89-4.28-33.79-6.31-50.69s-3.96-33.66-5.83-50.5c-1.87-16.84-3.67-33.69-5.39-50.55-1.73-16.94-3.39-33.89-4.98-50.84-1.58-16.87-3.08-33.75-4.51-50.64-1.44-16.97-2.8-33.94-4.09-50.92-1.28-16.9-2.49-33.8-3.63-50.71s-2.21-33.98-3.2-50.98c-.99-16.92-1.9-33.84-2.74-50.76s-1.61-34.02-2.31-51.03c-.69-16.93-1.31-33.87-1.86-50.8s-1.02-34.04-1.42-51.06c-.4-16.94-.72-33.88-.97-50.83-.25-17.03-.43-34.05-.53-51.08-.1-16.95-.13-33.89-.08-50.84.05-17.03.17-34.06.36-51.08.19-16.94.46-33.89.81-50.83s.76-34.05,1.26-51.07c.24-8.22.49-16.44.77-24.67.11-3.22-4.89-3.21-5,0h0Z"/>
  <path class="cls-1" d="M2665.23,942.99c11.56-15.26,23.25-30.43,35.08-45.49,11.91-15.17,23.95-30.23,36.12-45.19,12.12-14.9,24.37-29.69,36.75-44.38,12.38-14.69,24.89-29.26,37.52-43.73s25.49-28.94,38.42-43.25c12.88-14.25,25.89-28.38,39.01-42.41s26.37-27.93,39.74-41.72,26.85-27.47,40.46-41.03,27.44-27.11,41.33-40.48c13.84-13.32,27.79-26.52,41.86-39.6,3.43-3.19,6.87-6.37,10.32-9.55,2.37-2.19-1.17-5.71-3.54-3.54-14.18,13.07-28.25,26.26-42.19,39.58-13.95,13.32-27.78,26.75-41.5,40.31-13.66,13.5-27.2,27.12-40.63,40.86-13.48,13.79-26.84,27.7-40.07,41.73-13.24,14.02-26.35,28.16-39.34,42.42-12.94,14.2-25.75,28.5-38.45,42.92s-25.36,29.06-37.85,43.76c-12.49,14.69-24.85,29.5-37.08,44.41-12.18,14.85-24.23,29.81-36.16,44.87-12.01,15.17-23.88,30.44-35.62,45.81-2.85,3.72-5.68,7.45-8.51,11.19-.82,1.08-.17,2.8.9,3.42,1.28.75,2.6.18,3.42-.9h0Z"/>
  <path class="cls-1" d="M2678.64,953.74c21.29,14.88,42.59,29.77,63.88,44.65,21.23,14.83,42.45,29.67,63.68,44.5,21.23,14.83,42.45,29.67,63.68,44.5,21.29,14.88,42.59,29.77,63.88,44.65,21.16,14.79,42.31,29.57,63.47,44.36,20.42,14.27,40.85,28.52,61.25,42.82,18.42,12.92,36.77,25.94,54.85,39.32,18.01,13.32,35.76,27,53.01,41.3,17.21,14.26,33.94,29.13,49.87,44.82,15.89,15.65,31,32.11,44.97,49.5,3.38,4.21,6.69,8.47,9.93,12.79.81,1.08,2.16,1.63,3.42.9,1.06-.62,1.71-2.33.9-3.42-13.48-17.98-28.14-35.04-43.73-51.23-15.54-16.14-31.96-31.42-48.94-46.03-17.12-14.73-34.82-28.78-52.82-42.42-18-13.63-36.32-26.83-54.75-39.86-19.62-13.87-39.35-27.59-59.05-41.36-21.29-14.88-42.59-29.77-63.88-44.65-21.29-14.88-42.59-29.77-63.88-44.65-21.29-14.88-42.59-29.77-63.88-44.65-21.29-14.88-42.59-29.77-63.88-44.65-21.29-14.88-42.59-29.77-63.88-44.65-5.19-3.63-10.37-7.25-15.56-10.88-1.11-.77-2.78-.2-3.42.9-.73,1.25-.21,2.64.9,3.42h0Z"/>
</svg>